<?xml version="1.0" encoding="UTF-8"?>
<svg width="11px" height="14px" viewBox="0 0 11 14" version="1.1" xmlns="http://www.w3.org/2000/svg" xmlns:xlink="http://www.w3.org/1999/xlink">
    <title>536F7961-EB2D-4195-87B4-02B78E2BDA77@1,5x</title>
    <g id="Page-1" stroke="none" stroke-width="1" fill="none" fill-rule="evenodd">
        <g id="DocuSign_HomePage_V1-Copy-4" transform="translate(-275.000000, -589.000000)" fill="#24202A" fill-rule="nonzero">
            <g id="down-arrow-(1)" transform="translate(275.000000, 589.000000)">
                <path d="M10.45,9 C10.7536,9 11,9.28 11,9.625 L11,9.625 L11,12.125 C11,13.1590625 10.259975,14 9.35,14 L9.35,14 L1.65,14 C0.740025,14 0,13.1590625 0,12.125 L0,12.125 L0,9.625 C0,9.28 0.2464,9 0.55,9 C0.8536,9 1.1,9.28 1.1,9.625 L1.1,9.625 L1.1,12.125 C1.1,12.4696875 1.346675,12.75 1.65,12.75 L1.65,12.75 L9.35,12.75 C9.653325,12.75 9.9,12.4696875 9.9,12.125 L9.9,12.125 L9.9,9.625 C9.9,9.28 10.1464,9 10.45,9 Z M5.5,0 C5.82200671,0 6.08334549,0.259368421 6.08334549,0.578947368 L6.08334549,0.578947368 L6.08334549,9.02347368 L8.00430217,7.117 C8.23209859,6.89092105 8.60135628,6.89092105 8.82915269,7.117 C9.0569491,7.34307895 9.0569491,7.70955263 8.82915269,7.93563158 L8.82915269,7.93563158 L5.91242526,10.8303684 C5.79838122,10.9435526 5.64933644,11 5.5,11 C5.35066356,11 5.20132711,10.9435526 5.08757474,10.8303684 L5.08757474,10.8303684 L2.17084731,7.93563158 C1.9430509,7.70955263 1.9430509,7.34307895 2.17084731,7.117 C2.39835205,6.89092105 2.76819309,6.89092105 2.99569783,7.117 L2.99569783,7.117 L4.91665451,9.02347368 L4.91665451,0.578947368 C4.91665451,0.259368421 5.17799329,0 5.5,0 Z" id="Combined-Shape"></path>
            </g>
        </g>
    </g>
</svg>