<?xml version="1.0" encoding="UTF-8"?>
<svg width="17px" height="24px" viewBox="0 0 17 24" version="1.1" xmlns="http://www.w3.org/2000/svg" xmlns:xlink="http://www.w3.org/1999/xlink">
    <title>681DEA5C-209E-4F21-9332-EF7EC40DC2F1@1,5x</title>
    <g id="Page-1" stroke="none" stroke-width="1" fill="none" fill-rule="evenodd">
        <g id="DocuSign-HR-Tool-Employee-page_3" transform="translate(-781.000000, -922.000000)" fill="#616161" fill-rule="nonzero">
            <g id="Asset-1" transform="translate(781.000000, 922.000000)">
                <path d="M15.52,23.8254545 L1.38181818,23.8254545 C0.621492251,23.8254545 0.00400171535,23.2112245 0,22.4509091 L0,1.38181818 C0,0.618661073 0.618661073,0 1.38181818,0 L10.8363636,0 C11.0234409,0 11.1963074,0.0998045237 11.289846,0.26181818 C11.3833847,0.423831835 11.3833847,0.623440892 11.289846,0.785454548 C11.1963074,0.947468204 11.0234409,1.04727273 10.8363636,1.04727273 L1.38181818,1.04727273 C1.29249073,1.0452646 1.20622603,1.07986602 1.14304602,1.14304602 C1.07986602,1.20622603 1.0452646,1.29249073 1.04727273,1.38181818 L1.04727273,22.4727273 C1.0512284,22.6546453 1.19985714,22.800043 1.38181818,22.8 L15.52,22.8 C15.7004219,22.7963223 15.8469038,22.6530248 15.8545455,22.4727273 L15.8545455,6.10181818 C15.8545454,5.91474092 15.95435,5.7418744 16.1163636,5.64833576 C16.2783773,5.55479713 16.4779863,5.55479713 16.64,5.64833576 C16.8020137,5.7418744 16.9018182,5.91474092 16.9018182,6.10181818 L16.9018182,22.4509091 C16.8900283,23.2079388 16.2770814,23.8176597 15.52,23.8254545 Z" id="Path"></path>
                <path d="M16.3781818,6.62545455 L11.6363636,6.62545455 C10.8748598,6.62147794 10.2585221,6.00514023 10.2545455,5.24363636 L10.2545455,0.523636364 C10.2567398,0.312241524 10.3858348,0.12290231 10.5818182,0.0436363636 C10.7754647,-0.0390650435 10.9999304,0.00410142308 11.1490909,0.152727273 L16.7272727,5.73090909 C16.8784172,5.87841152 16.9245045,6.10308706 16.8436364,6.29818182 C16.7664599,6.48940531 16.5842396,6.61752897 16.3781818,6.62545455 L16.3781818,6.62545455 Z M11.3236364,1.78909091 L11.3236364,5.24363636 C11.327592,5.42555441 11.4762208,5.57095209 11.6581818,5.5709091 L15.1127273,5.5709091 L11.3236364,1.78909091 Z" id="Shape"></path>
                <path d="M8.45090909,5.62909091 L3.94181818,5.62909091 C3.6526218,5.62909091 3.41818182,5.39465092 3.41818182,5.10545455 C3.41818182,4.81625817 3.6526218,4.58181818 3.94181818,4.58181818 L8.45090909,4.58181818 C8.74010547,4.58181818 8.97454545,4.81625817 8.97454545,5.10545455 C8.97454545,5.39465092 8.74010547,5.62909091 8.45090909,5.62909091 L8.45090909,5.62909091 Z" id="Path"></path>
                <path d="M5.24363636,18.0072727 L5.24363636,18.0072727 C5.08136637,18.0072925 4.92825591,17.9320803 4.82909091,17.8036364 L3.82545455,16.4945455 C3.65756267,16.2658063 3.69920474,15.9454826 3.92,15.7672727 C4.14770438,15.5954159 4.47107704,15.6374543 4.64727273,15.8618182 L5.23636364,16.6327273 L5.96363636,15.6654545 C6.14036748,15.4365074 6.46923469,15.394178 6.69818182,15.5709091 C6.92712895,15.7476402 6.96945839,16.0765074 6.79272727,16.3054545 L5.65818182,17.8036364 C5.56130421,17.9348499 5.40670028,18.0107956 5.24363636,18.0072727 L5.24363636,18.0072727 Z M13.4545455,17.1709091 L9.09090909,17.1709091 C8.8904472,17.1946576 8.69418522,17.1010631 8.58646156,16.9303453 C8.47873791,16.7596274 8.47873791,16.5421908 8.58646156,16.3714729 C8.69418522,16.2007551 8.8904472,16.1071606 9.09090909,16.1309091 L13.4545455,16.1309091 C13.6550073,16.1071606 13.8512693,16.2007551 13.958993,16.3714729 C14.0667166,16.5421908 14.0667166,16.7596274 13.958993,16.9303453 C13.8512693,17.1010631 13.6550073,17.1946576 13.4545455,17.1709091 L13.4545455,17.1709091 Z M5.24363636,14.6545455 L5.24363636,14.6545455 C5.08211674,14.651405 4.93029848,14.5768276 4.82909091,14.4509091 L3.82545455,13.1345455 C3.65756267,12.9058063 3.69920474,12.5854826 3.92,12.4072727 C4.14958636,12.2370458 4.47326045,12.2823601 4.64727273,12.5090909 L5.23636364,13.2363636 L5.96363636,12.2763636 C6.13983205,12.0519998 6.46320471,12.0099613 6.69090909,12.1818182 C6.91170435,12.360028 6.95334642,12.6803517 6.78545455,12.9090909 L5.65818182,14.4509091 C5.55901682,14.5793531 5.40590636,14.6545455 5.24363636,14.6545455 L5.24363636,14.6545455 Z M13.4545455,13.8181818 L9.09090909,13.8181818 C8.80171271,13.8181818 8.56727273,13.5837418 8.56727273,13.2945455 C8.56727273,13.0053491 8.80171271,12.7709091 9.09090909,12.7709091 L13.4545455,12.7709091 C13.7437418,12.7709091 13.9781818,13.0053491 13.9781818,13.2945455 C13.9781818,13.5837418 13.7437418,13.8181818 13.4545455,13.8181818 L13.4545455,13.8181818 Z M5.24363636,11.2945455 L5.24363636,11.2945455 C5.08136637,11.2945652 4.92825591,11.2193531 4.82909091,11.0909091 L3.82545455,9.78181818 C3.65756267,9.55307899 3.69920474,9.23275532 3.92,9.05454545 C4.14770438,8.88268859 4.47107704,8.92472704 4.64727273,9.14909091 L5.23636364,9.92 L5.96363636,8.96 C6.13764864,8.73326921 6.46132273,8.68795484 6.69090909,8.85818182 C6.91170435,9.03639168 6.95334642,9.35671536 6.78545455,9.58545455 L5.65818182,11.0909091 C5.56130421,11.2221226 5.40670028,11.2980684 5.24363636,11.2945455 L5.24363636,11.2945455 Z M13.4545455,10.4654545 L9.09090909,10.4654545 C8.80171271,10.4654545 8.56727273,10.2310146 8.56727273,9.94181818 C8.56727273,9.6526218 8.80171271,9.41818182 9.09090909,9.41818182 L13.4545455,9.41818182 C13.6416227,9.41818182 13.8144892,9.51798633 13.9080279,9.67999999 C14.0015665,9.84201365 14.0015665,10.0416227 13.9080279,10.2036364 C13.8144892,10.36565 13.6416227,10.4654545 13.4545455,10.4654545 L13.4545455,10.4654545 Z" id="Shape"></path>
            </g>
        </g>
    </g>
</svg>