<?xml version="1.0" encoding="UTF-8"?>
<svg width="24px" height="24px" viewBox="0 0 24 24" version="1.1" xmlns="http://www.w3.org/2000/svg" xmlns:xlink="http://www.w3.org/1999/xlink">
    <title>894AC371-09ED-4D10-B0FE-C5EAB4D2400A@1,5x</title>
    <defs>
        <polygon id="path-1" points="0 0.00014 23.9472 0.00014 23.9472 23.9236 0 23.9236"></polygon>
    </defs>
    <g id="Page-1" stroke="none" stroke-width="1" fill="none" fill-rule="evenodd">
        <g id="DocuSign-HR-Tool-Employee-page_3" transform="translate(-206.000000, -922.000000)">
            <g id="Group-3" transform="translate(206.000000, 922.000000)">
                <mask id="mask-2" fill="white">
                    <use xlink:href="#path-1"></use>
                </mask>
                <g id="Clip-2"></g>
                <path d="M14.9788,4.67134 L3.4548,4.67134 C3.1792,4.67134 2.9558,4.44794 2.9558,4.17234 C2.9558,3.89674 3.1792,3.67354 3.4548,3.67354 L14.9788,3.67354 C15.2544,3.67354 15.4776,3.89674 15.4776,4.17234 C15.4776,4.44794 15.2544,4.67134 14.9788,4.67134 L14.9788,4.67134 Z M14.9788,7.30474 L3.4548,7.30474 C3.1792,7.30474 2.9558,7.08134 2.9558,6.80574 C2.9558,6.53014 3.1792,6.30694 3.4548,6.30694 L14.9788,6.30694 C15.2544,6.30694 15.4776,6.53014 15.4776,6.80574 C15.4776,7.08134 15.2544,7.30474 14.9788,7.30474 L14.9788,7.30474 Z M14.9788,9.93814 L3.4548,9.93814 C3.1792,9.93814 2.9558,9.71474 2.9558,9.43914 C2.9558,9.16354 3.1792,8.94034 3.4548,8.94034 L14.9788,8.94034 C15.2544,8.94034 15.4776,9.16354 15.4776,9.43914 C15.4776,9.71474 15.2544,9.93814 14.9788,9.93814 L14.9788,9.93814 Z M16.0276,14.59794 C15.2128,14.59794 14.5498,15.26094 14.5498,16.07574 C14.5498,16.89074 15.2128,17.55354 16.0276,17.55354 C16.8424,17.55354 17.5054,16.89074 17.5054,16.07574 C17.5054,15.26094 16.8424,14.59794 16.0276,14.59794 L16.0276,14.59794 Z M16.0276,18.55134 C14.6624,18.55134 13.552,17.44094 13.552,16.07574 C13.552,14.71074 14.6624,13.60014 16.0276,13.60014 C17.3926,13.60014 18.5032,14.71074 18.5032,16.07574 C18.5032,17.44094 17.3926,18.55134 16.0276,18.55134 L16.0276,18.55134 Z M18.4498,1.70354 L18.4498,5.15254 C18.4498,5.34254 18.6044,5.49714 18.7944,5.49714 L22.2436,5.49714 L18.4498,1.70354 Z M1.3424,0.99794 C1.1524,0.99794 0.998,1.15254 0.998,1.34254 L0.998,15.81834 C0.998,16.00034 1.1608,16.16134 1.3468,16.16294 L11.384,16.24874 C11.382,16.19134 11.381,16.13374 11.381,16.07574 C11.381,13.51354 13.4654,11.42914 16.0276,11.42914 C18.5898,11.42914 20.6744,13.51354 20.6744,16.07574 C20.6744,16.13214 20.6734,16.18834 20.6714,16.24414 L22.5836,16.16334 C22.7786,16.15514 22.9494,15.99394 22.9494,15.81834 L22.9494,6.49514 L18.7944,6.49514 C18.0542,6.49514 17.452,5.89274 17.452,5.15254 L17.452,0.99794 L1.3424,0.99794 Z M16.0276,12.42694 C14.0156,12.42694 12.3788,14.06374 12.3788,16.07574 C12.3788,18.08794 14.0156,19.72474 16.0276,19.72474 C18.0396,19.72474 19.6764,18.08794 19.6764,16.07574 C19.6764,14.06374 18.0396,12.42694 16.0276,12.42694 L16.0276,12.42694 Z M11.2082,21.43754 L13.9652,22.78174 L15.3232,20.66914 C14.1982,20.49734 13.2046,19.92074 12.4964,19.09294 L11.2082,21.43754 Z M16.804,20.65774 L18.1712,22.78494 L20.9844,21.44154 L19.678,18.94794 C18.9786,19.83474 17.9636,20.46194 16.804,20.65774 L16.804,20.65774 Z M17.9896,23.9236375 C17.8244,23.9236375 17.6642,23.84134 17.5696,23.69434 L16.0672,21.35694 L14.5648,23.69434 C14.428,23.90714 14.1536,23.98394 13.9262,23.87314 L10.3,22.10474 C10.1772,22.04494 10.0844,21.93734 10.0432,21.80714 C10.0018,21.67714 10.0158,21.53574 10.0816,21.41614 L11.873,18.15554 C11.7286,17.86874 11.6132,17.56474 11.5306,17.24774 L1.3382,17.16074 C0.6002,17.15434 -1.95399252e-13,16.55214 -1.95399252e-13,15.81834 L-1.95399252e-13,1.34254 C-1.95399252e-13,0.60234 0.6022,0.00014 1.3424,0.00014 L17.9474,0.00014 C17.9558,0.00014 17.9634,0.00014 17.9714,0.00054 C18.1014,0.00574 18.2186,0.06074 18.3048,0.14714 L23.801,5.64334 L23.801,5.64334 C23.8014,5.64374 23.8016,5.64394 23.802,5.64434 C23.802,5.64434 23.8022,5.64454 23.8024,5.64454 C23.8026,5.64494 23.8028,5.64514 23.803,5.64534 C23.803,5.64534 23.8032,5.64554 23.8034,5.64574 C23.8036,5.64594 23.8038,5.64614 23.804,5.64634 C23.8042,5.64634 23.8042,5.64654 23.8042,5.64654 C23.8046,5.64694 23.805,5.64714 23.8052,5.64754 C23.8052,5.64754 23.8054,5.64754 23.8054,5.64774 C23.8058,5.64794 23.806,5.64834 23.8062,5.64854 C23.8064,5.64874 23.8064,5.64874 23.8066,5.64894 C23.8068,5.64914 23.807,5.64934 23.8072,5.64954 C23.8074,5.64974 23.8074,5.64974 23.8076,5.64994 C23.8078,5.65014 23.808,5.65054 23.8082,5.65074 C23.8082,5.65074 23.8084,5.65074 23.8084,5.65074 C23.8086,5.65114 23.809,5.65154 23.8094,5.65194 C23.8094,5.65194 23.8094,5.65194 23.8096,5.65214 C23.8098,5.65234 23.81,5.65254 23.8102,5.65294 C23.8104,5.65294 23.8104,5.65314 23.8106,5.65314 C23.8108,5.65334 23.811,5.65374 23.8112,5.65394 C23.8114,5.65394 23.8114,5.65414 23.8116,5.65414 C23.8118,5.65454 23.8122,5.65474 23.8126,5.65514 C23.8128,5.65554 23.8132,5.65574 23.8134,5.65614 C23.8136,5.65634 23.8136,5.65634 23.8138,5.65654 C23.814,5.65674 23.8142,5.65694 23.8144,5.65714 C23.8146,5.65734 23.8146,5.65754 23.8148,5.65754 L23.8154,5.65814 C23.8156,5.65834 23.8156,5.65854 23.8158,5.65854 C23.816,5.65874 23.8162,5.65894 23.8162,5.65914 L23.817,5.66014 C23.817,5.66014 23.8172,5.66034 23.8172,5.66034 C23.8176,5.66074 23.8178,5.66094 23.818,5.66114 C23.818,5.66114 23.818,5.66134 23.8182,5.66134 C23.8184,5.66154 23.8186,5.66174 23.8188,5.66214 C23.8188,5.66214 23.8188,5.66214 23.819,5.66214 C23.8938,5.74514 23.9412,5.85354 23.9466,5.97254 C23.9472,5.98174 23.9472,5.99094 23.9472,6.00014 L23.9472,15.81834 C23.9472,16.52794 23.3544,17.12974 22.6254,17.16034 L20.5612,17.24754 C20.549,17.24814 20.5366,17.24814 20.5246,17.24774 C20.4616,17.48914 20.3796,17.72314 20.2806,17.94774 L22.1086,21.43714 C22.1716,21.55714 22.183,21.69774 22.1402,21.82614 C22.0974,21.95474 22.004,22.06054 21.8818,22.11894 L18.2042,23.87494 C18.135,23.90794 18.0618,23.9236375 17.9896,23.9236375 L17.9896,23.9236375 Z" id="Fill-1" fill="#616161" mask="url(#mask-2)"></path>
            </g>
        </g>
    </g>
</svg>