<?xml version="1.0" encoding="UTF-8"?>
<svg width="24px" height="24px" viewBox="0 0 24 24" version="1.1" xmlns="http://www.w3.org/2000/svg" xmlns:xlink="http://www.w3.org/1999/xlink">
    <title>43A1A210-D0A1-4476-9D65-B9CBA6D1BD53@1,5x</title>
    <g id="Page-1" stroke="none" stroke-width="1" fill="none" fill-rule="evenodd">
        <g id="DocuSign-HR-Tool-Employee-page_1" transform="translate(-680.000000, -555.000000)" fill="#616161">
            <g id="icon-/-time-card" transform="translate(680.000000, 555.000000)">
                <g id="Group-34">
                    <path d="M6.40453873,8.03104509 C8.67149827,8.18433988 9.84160231,8.71816647 9.88224971,9.61788902 L10.0927699,14.2671607 C10.0972786,14.368363 10.1081688,14.4791376 10.1197526,14.5965017 C10.1775329,15.1817965 10.2647931,16.066259 9.43540578,16.5386983 C9.12063121,16.7178659 8.76493179,16.7511607 8.43406474,16.6322012 C8.37866891,16.6123043 8.32468511,16.5886197 8.27213075,16.5611682 L8.28957919,18.3836116 L8.34146358,22.374548 C8.34729017,22.9187792 8.07850405,23.3774844 7.58442312,23.6672879 C7.24800694,23.8646289 6.83418035,23.9636116 6.42111676,23.9636116 C6.01804162,23.9636116 5.61579884,23.8694844 5.2864578,23.6806751 C5.18656422,23.6234208 5.09575213,23.559178 5.0144356,23.4886391 C4.93085314,23.5672738 4.83455113,23.6374441 4.72833295,23.6983353 C4.41820578,23.8761156 4.0475237,23.9648324 3.67635607,23.9648324 C3.29589364,23.9648324 2.9148763,23.8716763 2.59781272,23.685711 C2.11156994,23.4004855 1.83612486,22.9229827 1.84195145,22.3756301 L1.89397457,18.3817803 L1.90815404,16.7283261 C1.72897541,16.8225574 1.5634816,16.8568069 1.43653873,16.8661665 C1.37972948,16.871785 1.32534798,16.8744208 1.27339422,16.8744208 C0.864006936,16.8744208 0.600908671,16.7112763 0.44705896,16.5642936 C-0.0669294798,16.0732647 -0.0167791908,15.209889 0.0236601156,14.5161087 C0.0310820809,14.3876462 0.0381572254,14.266259 0.0397526012,14.1672763 L0.0412786127,14.0721087 C0.0673595376,12.466259 0.0998219653,10.4693341 0.324492486,9.52147283 C0.450873988,8.88679075 1.21415723,8.45499884 2.65679306,8.20195838 C3.74983353,8.01009711 5.15071214,7.94635145 6.40453873,8.03104509 Z M2.87681618,9.14940347 C1.71101272,9.34743815 1.32423815,9.63002775 1.27540578,9.7189526 C1.27422659,9.72519538 1.27283931,9.73129942 1.27138266,9.73747283 C1.06932486,10.5762243 1.03630751,12.605889 1.01223815,14.0878543 L1.01071214,14.183022 C1.00883931,14.3023283 1.00113988,14.433496 0.993093642,14.5725017 C0.970550289,14.9599699 0.928584971,15.6812879 1.11787977,15.8621202 C1.15603006,15.8985364 1.23246936,15.9112301 1.34463121,15.8994382 C1.35101272,15.8987445 1.35739422,15.898259 1.36377572,15.8978428 C1.50520925,15.8886867 1.72467746,15.6993225 1.91646936,15.1951145 L1.92300032,15.1803503 L1.95966243,11.3116994 C1.96215954,11.0451329 2.17906127,10.830659 2.4451422,10.830659 L2.44972023,10.830659 C2.71788208,10.8332254 2.93318844,11.0526243 2.93076069,11.3207168 L2.86500347,18.3926012 L2.81298035,22.3871445 C2.81083006,22.5866358 2.9011422,22.7378497 3.08911908,22.848 C3.41339653,23.0382659 3.92121156,23.0416647 4.24535029,22.8558382 C4.4924948,22.7141965 4.5209341,22.5294798 4.52086474,22.4028902 L4.52081597,22.4022243 L4.52560231,16.5856231 C4.52578728,16.3473803 4.69757063,16.1493654 4.92393491,16.1083033 L5.01156763,16.1004902 C5.27972948,16.1006983 5.49690867,16.3182243 5.49670058,16.5864555 L5.49191445,22.4029179 C5.49191445,22.5213919 5.52056185,22.6955653 5.7693711,22.838178 C6.13443468,23.0474497 6.72833064,23.0436347 7.09311676,22.8296462 C7.34442312,22.6823168 7.37168324,22.5058543 7.37043468,22.3860624 L7.31855029,18.3944324 L7.2527237,11.3207445 C7.25022659,11.0525827 7.46567168,10.8331838 7.73376416,10.8306867 L7.7383422,10.8306867 C8.00442312,10.8306867 8.22132486,11.0450913 8.22382197,11.3117272 L8.25889484,15.0081457 C8.26174124,15.014746 8.26445632,15.0214394 8.26703584,15.0282243 C8.47637688,15.5786289 8.6991052,15.6955075 8.76236532,15.718259 C8.80218035,15.732548 8.86544046,15.7457965 8.9547815,15.6948832 C9.1957526,15.5576116 9.21572948,15.3239931 9.15344046,14.6918081 C9.14109364,14.567022 9.12833064,14.4379353 9.12257341,14.3109988 L8.91212254,9.66172717 C8.85427283,9.49865202 8.0780185,9.09412023 6.15448092,8.98861734 C5.03480462,8.92736879 3.8400763,8.98584277 2.87681618,9.14940347 Z M12.8308717,0.069350289 C18.8637503,0.069350289 23.7718197,4.97748902 23.7718197,11.0103676 C23.7718197,12.9681874 23.2444056,14.8558689 22.2920465,16.4975503 C22.2912585,16.500739 22.2896159,16.503652 22.2879399,16.5065549 C21.3514622,18.1127573 20.0163116,19.4776418 18.3724003,20.4449788 C18.3487359,20.4648297 18.3229942,20.4833288 18.2950405,20.4994682 C18.268617,20.514742 18.2413481,20.5272392 18.2135747,20.5370542 L18.2256,20.5298358 C16.5515653,21.5145295 14.6362127,22.0348994 12.686178,22.0348994 C11.4696,22.0348994 10.2728601,21.8356162 9.12918382,21.4426682 C8.87551908,21.3555468 8.74060578,21.0793387 8.82772717,20.8257434 C8.91484855,20.572148 9.19070983,20.437096 9.44472139,20.5242867 C10.3827624,20.8465841 11.3602716,21.0258513 12.3550788,21.0583932 L12.3550682,19.5628994 C12.3550682,19.2947376 12.5724555,19.0773503 12.8406173,19.0773503 C13.1087792,19.0773503 13.3261665,19.2947376 13.3261665,19.5628994 L13.3264526,21.0432663 C14.7460731,20.9521133 16.1304386,20.5588225 17.3818892,19.8899728 L17.1536532,19.4936879 C17.0195723,19.2613873 17.0992023,18.9644393 17.3314335,18.8304277 C17.5637341,18.6962775 17.8606127,18.7759075 17.9946936,19.0081387 L18.2198593,19.3987219 C19.4245253,18.6232028 20.4316142,17.6070021 21.19191,16.4345645 L20.796541,16.2061387 C20.5643792,16.0721272 20.4847491,15.7751792 20.6188301,15.5428786 C20.7529803,15.3107168 21.0499283,15.2311561 21.2820902,15.3651676 L21.6805648,15.5944641 C22.3252142,14.3511875 22.7104462,12.9706241 22.7866993,11.5378119 L21.3512948,11.5377434 C21.0831329,11.5377434 20.8657457,11.3203561 20.8657457,11.0521942 C20.8657457,10.7840324 21.0831329,10.5666451 21.3512948,10.5666451 L22.7909755,10.5666506 C22.7266257,9.10452539 22.3458592,7.72318736 21.715634,6.48959717 L21.2820347,6.73915145 C21.2055954,6.78333642 21.1220809,6.80428439 21.0397457,6.80428439 C20.8718844,6.80428439 20.7087399,6.71723237 20.6187746,6.56144046 C20.4846936,6.32920925 20.5643237,6.03226127 20.7964855,5.89818035 L21.2319275,5.64692102 C20.4640475,4.44833829 19.4468643,3.4240789 18.2541261,2.64789403 L17.994541,3.09627746 C17.9045757,3.25206936 17.7413618,3.33912139 17.5735699,3.33912139 C17.4912347,3.33912139 17.4077202,3.31817341 17.3312809,3.27398844 C17.0990497,3.13990751 17.019489,2.84295954 17.1535006,2.61072832 L17.4145928,2.15800244 C16.1796646,1.51595374 14.7942888,1.12481941 13.3264758,1.05261262 L13.326104,2.54156532 C13.326104,2.80972717 13.1087168,3.02711445 12.8405549,3.02711445 C12.5723931,3.02711445 12.3550058,2.80972717 12.3550058,2.54156532 L12.3553602,1.0517509 C10.9244631,1.11981427 9.52614097,1.49429251 8.25972315,2.14816544 L8.52753295,2.61086705 C8.66154451,2.84309827 8.58198382,3.13997688 8.3497526,3.27412717 C8.27331329,3.31824277 8.18979884,3.33919075 8.10746358,3.33919075 C7.93960231,3.33919075 7.7764578,3.25213873 7.68649249,3.09634682 L7.29673574,2.42080856 C7.2231282,2.38019561 7.15910796,2.31992163 7.11332254,2.24225202 C6.97723006,2.0112 7.05415491,1.71355838 7.28520694,1.5774659 C8.95958844,0.590830058 10.8772994,0.069350289 12.8308717,0.069350289 Z M12.8897965,4.81589133 C13.1579584,4.8184578 13.3732647,5.03792601 13.3707676,5.3060185 L13.3310668,9.58010505 C13.7935185,9.73458698 14.1597139,10.1013232 14.3134589,10.5641345 L18.3210243,10.5403561 L18.3239376,10.5403561 C18.5907121,10.5403561 18.807822,10.7558012 18.8094254,11.0229919 C18.8109434,11.2911538 18.594874,11.509859 18.3267121,11.5114543 L14.3146408,11.5366896 C14.1106915,12.1556497 13.5269814,12.6036832 12.8406173,12.6036832 C11.9851491,12.6036832 11.2891491,11.9076832 11.2891491,11.052215 C11.2891491,10.36469 11.7386268,9.78019453 12.3591343,9.57714038 L12.3996694,5.29686243 C12.4022358,5.03022659 12.6191376,4.81589133 12.8851491,4.81589133 L12.8897965,4.81589133 Z M12.8406173,10.4717757 C12.5206405,10.4717757 12.2602474,10.7321688 12.2602474,11.052215 C12.2602474,11.3721919 12.5206405,11.632585 12.8406173,11.632585 C13.1605942,11.632585 13.4209873,11.3721919 13.4209873,11.052215 C13.4209873,10.7321688 13.1605942,10.4717757 12.8406173,10.4717757 Z M5.02883931,2.74497572 C6.41383353,2.74497572 7.54065434,3.87179653 7.54065434,5.25686012 C7.54065434,6.15810867 7.05399538,6.9945711 6.27018035,7.44065202 C5.88624971,7.66587746 5.44738266,7.78490636 5.00074682,7.78490636 C3.61582197,7.78490636 2.48900116,6.65808555 2.48900116,5.27302197 C2.48900116,4.3721896 2.97545202,3.5358659 3.75864277,3.08950751 C4.14243468,2.86407399 4.58150983,2.74497572 5.02883931,2.74497572 Z M5.02883931,3.71607399 C4.75353295,3.71607399 4.48363699,3.78939191 4.24842312,3.92805087 C4.2461341,3.92936879 4.24384509,3.93068671 4.24162543,3.93200462 C3.75961387,4.20571561 3.46009942,4.71956532 3.46009942,5.27302197 C3.46009942,6.12259422 4.15124393,6.81380809 5.00074682,6.81380809 C5.27556763,6.81380809 5.54539422,6.74049017 5.78095491,6.60183121 C5.78324393,6.60051329 5.78546358,6.59919538 5.7877526,6.59794682 C6.26997225,6.32437457 6.56955607,5.81052486 6.56955607,5.25686012 C6.56955607,4.4072185 5.87841156,3.71607399 5.02883931,3.71607399 Z" id="Combined-Shape"></path>
                </g>
            </g>
        </g>
    </g>
</svg>