<?xml version="1.0" encoding="UTF-8"?>
<svg width="26px" height="21px" viewBox="0 0 26 21" version="1.1" xmlns="http://www.w3.org/2000/svg" xmlns:xlink="http://www.w3.org/1999/xlink">
    <title>6FB186BC-BB66-49BD-A4E8-2E783DB20DC9@1,5x</title>
    <g id="Page-1" stroke="none" stroke-width="1" fill="none" fill-rule="evenodd" stroke-linecap="round" stroke-linejoin="round">
        <g id="DocuSign-HR-Tool-Employee-page_1" transform="translate(-678.000000, -328.000000)" stroke="#616161" stroke-width="1.1">
            <g id="icon-/-direct-deposit" transform="translate(679.000000, 329.000000)">
                <g id="Group-13">
                    <polygon id="Stroke-1" points="0.510967742 12.8742581 24.2170323 12.8742581 24.2170323 0.510967742 0.510967742 0.510967742"></polygon>
                    <path d="M12.363929,10.7156323 C14.0309613,10.7156323 15.3814774,8.91447097 15.3814774,6.69247097 C15.3814774,4.47047097 14.0309613,2.6686 12.363929,2.6686 C10.6976065,2.6686 9.34638065,4.47047097 9.34638065,6.69247097 C9.34638065,8.91447097 10.6976065,10.7156323 12.363929,10.7156323 Z" id="Stroke-3"></path>
                    <path d="M4.82850323,12.3297226 C4.82850323,10.2744968 3.16289032,8.60817419 1.10766452,8.60817419" id="Stroke-4"></path>
                    <path d="M19.8994258,12.3297226 C19.8994258,10.2744968 21.5657484,8.60817419 23.6202645,8.60817419" id="Stroke-5"></path>
                    <path d="M4.82850323,1.056 C4.82850323,3.11122581 3.16289032,4.77683871 1.10766452,4.77683871" id="Stroke-6"></path>
                    <path d="M19.8994258,1.056 C19.8994258,3.11122581 21.5657484,4.77683871 23.6202645,4.77683871" id="Stroke-7"></path>
                    <path d="M6.32130968,7.47290323 C6.75137419,7.47290323 7.10124516,7.12303226 7.10124516,6.69225806 C7.10124516,6.26148387 6.75137419,5.91232258 6.32130968,5.91232258 C5.89053548,5.91232258 5.54066452,6.26148387 5.54066452,6.69225806 C5.54066452,7.12303226 5.89053548,7.47290323 6.32130968,7.47290323 Z" id="Stroke-8"></path>
                    <path d="M18.3954774,7.47290323 C18.8262516,7.47290323 19.1761226,7.12303226 19.1761226,6.69225806 C19.1761226,6.26148387 18.8262516,5.91232258 18.3954774,5.91232258 C17.9654129,5.91232258 17.6155419,6.26148387 17.6155419,6.69225806 C17.6155419,7.12303226 17.9654129,7.47290323 18.3954774,7.47290323 Z" id="Stroke-9"></path>
                    <line x1="0.596058065" y1="15.7540581" x2="24.1325097" y2="15.7540581" id="Stroke-10"></line>
                    <line x1="0.596058065" y1="18.5345742" x2="24.1325097" y2="18.5345742" id="Stroke-11"></line>
                </g>
            </g>
        </g>
    </g>
</svg>