<?xml version="1.0" encoding="UTF-8"?>
<svg width="27px" height="26px" viewBox="0 0 27 26" version="1.1" xmlns="http://www.w3.org/2000/svg" xmlns:xlink="http://www.w3.org/1999/xlink">
    <title>FC96C075-BEFE-4B49-BB1F-1EBD7560E8C8@1,5x</title>
    <g id="Page-1" stroke="none" stroke-width="1" fill="none" fill-rule="evenodd" stroke-linecap="round" stroke-linejoin="round">
        <g id="DocuSign-HR-Tool-Employee-page_1" transform="translate(-678.000000, -439.000000)" stroke="#616161" stroke-width="1.1">
            <g id="icon-/-W-4" transform="translate(679.000000, 440.000000)">
                <path d="M10.8900956,2.21252844 L10.8900956,12.9992416 L10.8930077,12.9992416 L10.8937358,13.1062642 L18.5716973,20.8337327 C16.6023358,22.7899894 13.8889125,24 10.8937358,24 C4.87717276,24 -2.48689958e-14,19.1228272 -2.48689958e-14,13.1062642 C-2.48689958e-14,7.09115729 4.87498862,2.21471257 10.8900956,2.21252844 Z M24.5576824,12.7924769 L24.5591385,12.8994995 C24.5591385,15.9201577 23.3287426,18.6532383 21.3433642,20.62624 L13.6654027,12.8994995 L13.6654027,12.7924769 L24.5576824,12.7924769 Z M12.8397998,0 C18.8199606,0 23.6738359,4.81965721 23.7313514,10.7867132 L12.8354315,10.7867132 L12.8354315,0 L12.8397998,0 Z" id="Stroke-1"></path>
            </g>
        </g>
    </g>
</svg>