<?xml version="1.0" encoding="UTF-8"?>
<svg width="27px" height="25px" viewBox="0 0 27 25" version="1.1" xmlns="http://www.w3.org/2000/svg" xmlns:xlink="http://www.w3.org/1999/xlink">
    <title>48F587E6-1D96-4A08-9872-9B4BE7ECDF98@1,5x</title>
    <g id="Page-1" stroke="none" stroke-width="1" fill="none" fill-rule="evenodd">
        <g id="DocuSign-HR-Tool-Employee-page_1" transform="translate(-679.000000, -670.000000)">
            <g id="icon-/-tutor" transform="translate(679.000000, 670.000000)">
                <g id="Group-11">
                    <path d="M14.2286358,0.311183578 L25.3376094,5.48483754 C25.7311812,5.6679695 25.9863836,6.08687859 25.9875137,6.55202815 C25.9885654,6.97269677 25.7796035,7.33283754 25.4421255,7.4919695 L21.6096568,9.29934201 C21.6123035,9.32002299 21.613668,9.34110493 21.613668,9.36250557 L21.613668,14.2082534 C21.613668,16.6099425 17.9986065,18.4912328 13.3837091,18.4912328 C8.76902287,18.4912328 5.15417243,16.6099425 5.15417243,14.2082534 L5.15417243,9.58350264 C5.15417243,9.52105803 5.16578381,9.46133288 5.18696472,9.40636646 L3.96867097,8.83470264 C3.80876481,9.54020411 3.83853607,10.4793713 3.86978534,11.4623155 C3.88639531,11.9857408 3.90356833,12.5269021 3.89385572,13.0673595 C4.52694497,13.3060657 4.97903578,13.9157135 4.97903578,14.6290065 C4.97903578,15.4282527 4.41133722,16.0973499 3.65799615,16.2543357 C3.66112858,16.2733779 3.66222373,16.2946891 3.66192141,16.316305 C3.64678944,17.3977126 3.83308856,18.3223812 3.99742874,19.1382405 C4.33687742,20.8228152 4.63001525,22.2777361 2.91693607,23.8581466 C2.82304751,23.9447859 2.70311789,23.9887742 2.58276598,23.9887742 C2.48000938,23.9887742 2.37697126,23.9566804 2.28948739,23.8918592 L0.199305572,22.3424868 C0.0657923754,22.2436012 -0.00881173021,22.0840469 0.000830498531,21.9181584 C0.0104727273,21.7522698 0.103094428,21.6024282 0.247094428,21.5196598 C1.64760211,20.7143409 2.56156986,18.8399443 2.66762834,16.5865331 L2.67665455,16.3025806 L2.67665455,16.3012434 C2.6774358,16.2545515 2.68468936,16.2094813 2.69754641,16.166875 C2.0895096,15.9228901 1.65859003,15.325344 1.65859003,14.6290065 C1.65859003,13.8552086 2.19063075,13.2033849 2.90808094,13.0201242 L2.90865924,13.0496235 C2.91794956,12.533729 2.90112845,12.0049548 2.88494076,11.4935648 C2.84904633,10.3623977 2.81484106,9.28415718 3.05899355,8.4155824 L1.19213138,7.57628622 C0.795814663,7.39815132 0.536882111,6.98057947 0.532538199,6.51254428 C0.52878827,6.0906088 0.73908739,5.72814545 1.08156246,5.56669091 L12.3952047,0.231371261 C12.9048352,-0.00891026393 13.607451,0.0215648094 14.2286358,0.311183578 Z M3.06663695,19.50739 C2.66792727,20.5198944 2.08073666,21.3615132 1.33934076,21.9610205 L2.53518827,22.8475425 C3.48301232,21.810827 3.34478358,20.8970674 3.06663695,19.50739 Z M20.627998,9.76141451 L14.1282018,12.8272188 C13.6261724,13.0638405 12.9066651,13.0324504 12.2950522,12.7474065 L6.138998,9.85441451 L6.13950968,14.2082534 C6.13950968,15.0108809 6.86485865,15.8265994 8.12960938,16.446095 C9.52470616,17.1294968 11.3906534,17.5058956 13.3837091,17.5058956 C15.3767648,17.5058956 17.2428528,17.1294968 18.6380199,16.446095 C19.9029114,15.826529 20.6283308,15.0108809 20.6283308,14.2082534 L20.627998,9.76141451 Z M3.3188129,13.9540504 C2.94670733,13.9540504 2.64392727,14.2568305 2.64392727,14.6290065 C2.64392727,15.001112 2.94670733,15.3038217 3.3188129,15.3038217 C3.69098886,15.3038217 3.99369853,15.001112 3.99369853,14.6290065 C3.99369853,14.2568305 3.69098886,13.9540504 3.3188129,13.9540504 Z M12.815451,1.1226088 L1.5246827,6.44708974 C1.51687038,6.4727085 1.51250674,6.52619824 1.53073548,6.58398123 C1.54523402,6.63015132 1.57028974,6.66597537 1.59611965,6.67758827 L3.73310499,7.63829208 L13.0280023,5.72138886 C13.2942545,5.66620997 13.5550874,5.83779941 13.6100551,6.10433314 C13.6650229,6.37079648 13.4935038,6.63141818 13.2270405,6.68638592 L5.225539,8.33661466 L12.7126944,11.8549724 C13.0467238,12.0105853 13.4751343,12.0456352 13.7080258,11.9359812 L24.9946416,6.61361173 C25.0028762,6.58686686 25.0078733,6.53253255 24.9902076,6.47453842 C24.9833806,6.45201642 24.9629701,6.39733021 24.9217971,6.37818651 L13.8125419,1.20432141 C13.4714041,1.04525982 13.0520727,1.0108434 12.815451,1.1226088 Z" id="Combined-Shape" fill="#616161"></path>
                    <g id="Group-5" transform="translate(0.000000, 15.754135)"></g>
                    <g id="Group-8" transform="translate(0.492669, 0.059120)"></g>
                </g>
            </g>
        </g>
    </g>
</svg>