<?xml version="1.0" encoding="UTF-8"?>
<svg width="33px" height="31px" viewBox="0 0 33 31" version="1.1" xmlns="http://www.w3.org/2000/svg" xmlns:xlink="http://www.w3.org/1999/xlink">
    <title>54DE91C9-7323-41E9-8B1C-E0D3627B6FC2@1,5x</title>
    <g id="Page-1" stroke="none" stroke-width="1" fill="none" fill-rule="evenodd">
        <g id="DocuSign_HomePage_V1-Copy-4" transform="translate(-266.000000, -31.000000)">
            <g id="Group-10" transform="translate(266.500000, 31.000000)">
                <path d="M23.5,1 L1.5,1 L1.5,23 C1.5,24.9329966 2.28350169,26.6829966 3.55025253,27.9497475 C4.81700338,29.2164983 6.56700338,30 8.5,30 L23.5,30 C25.4329966,30 27.1829966,29.2164983 28.4497475,27.9497475 C29.7164983,26.6829966 30.5,24.9329966 30.5,23 L30.5,8 C30.5,6.06700338 29.7164983,4.31700338 28.4497475,3.05025253 C27.1829966,1.78350169 25.4329966,1 23.5,1 Z" id="Rectangle" stroke="#24202A" stroke-width="2"></path>
                <path d="M27.0962525,22.2349243 C26.3008423,21.5360107 25.3362427,20.9321289 24.2290039,20.4401245 C23.7556763,20.2299194 23.2017823,20.4430542 22.9915771,20.9161987 C22.7813721,21.3893433 22.9945068,21.9432373 23.4676513,22.1536255 C24.4013061,22.5685425 25.2058716,23.0697021 25.8586426,23.6433716 C26.6633911,24.3505249 27.125,25.3744507 27.125,26.453125 L27.125,28.1875 C27.125,28.7044068 26.7044067,29.125 26.1875,29.125 L7.8125,29.125 C7.29559325,29.125 6.875,28.7044068 6.875,28.1875 L6.875,26.453125 C6.875,25.3744507 7.33660887,24.3505249 8.14135742,23.6433716 C9.088562,22.8109741 11.8483276,20.875 17,20.875 C20.8252564,20.875 23.9375,17.7627564 23.9375,13.9375 C23.9375,10.1122436 20.8252564,7 17,7 C13.1747436,7 10.0625,10.1122436 10.0625,13.9375 C10.0625,16.1737671 11.1263427,18.1659546 12.774292,19.4354248 C9.75891116,20.0982666 7.88317869,21.3741455 6.90374755,22.2349243 C5.69396975,23.2978516 5,24.8352051 5,26.453125 L5,28.1875 C5,29.7384033 6.26159666,30.1298828 7.8125,30.1298828 C9.36340334,30.1298828 24.6365967,30.1298828 26.1875,30.1298828 C27.7384033,30.1298828 29,29.7384033 29,28.1875 L29,26.453125 C29,24.8352051 28.3060302,23.2978516 27.0962525,22.2349243 Z M11.9375,13.9375 C11.9375,11.1460571 14.2085571,8.875 17,8.875 C19.7914429,8.875 22.0625,11.1460571 22.0625,13.9375 C22.0625,16.7289429 19.7914429,19 17,19 C14.2085571,19 11.9375,16.7289429 11.9375,13.9375 Z" id="Shape" fill="#24202A" fill-rule="nonzero"></path>
            </g>
        </g>
    </g>
</svg>